# xmcd CD database file
#
# Track frame offsets:
#	150
#	20481
#	46328
#	81821
#	105028
#	128382
#	153724
#	190947
#	233149
#
# Disc length: 3327 seconds
#
# Revision: 0
# Processed by: cddbd v1.5.2PL0 Copyright (c) Steve Scherf et al.
# Submitted via: CDex 1.51
#
DISCID=600cfd09
DTITLE=Joe Mulholland Trio  - Runaway Train
DYEAR=2016
DGENRE=Jazz
TTITLE0=Runaway Train
TTITLE1=The Same Sky
TTITLE2=Alone Together
TTITLE3=No Romance
TTITLE4=Summer Nights
TTITLE5=Lesser Than
TTITLE6=Me Too
TTITLE7=Nardis
TTITLE8=Phrenology
EXTD=YEAR: 2016
EXTT0=
EXTT1=
EXTT2=
EXTT3=
EXTT4=
EXTT5=
EXTT6=
EXTT7=
EXTT8=
PLAYORDER=
